# xmcd CD database file
#
# Track frame offsets:
#	150
#	25775
#	39840
#	62445
#	84069
#	97395
#	120470
#	144171
#	165057
#	179266
#	212533
#	225590
#	251844
#
# Disc length: 3622 seconds
#
# Revision: 0
# Processed by: cddbd v1.4PL0 Copyright (c) Steve Scherf et al.
# Submitted via: CDex 1.51
#
DISCID=930e240d
DTITLE=Thomas Fink - My Romance
DYEAR=2003
DGENRE=Jazz
TTITLE0=My Romance
TTITLE1=On B.R. Centre
TTITLE2=If I should loose you
TTITLE3=My foolish heart
TTITLE4=Groovin at Lang's place
TTITLE5=TDI Blues
TTITLE6=Autumn feeling
TTITLE7=Tom's Waltz
TTITLE8=Moon River
TTITLE9=All the things you are
TTITLE10=Blue Bossa
TTITLE11=Basin Street Blues
TTITLE12=Turn out the stars
EXTD=YEAR: 2003
EXTT0=
EXTT1=
EXTT2=
EXTT3=
EXTT4=
EXTT5=
EXTT6=
EXTT7=
EXTT8=
EXTT9=
EXTT10=
EXTT11=
EXTT12=
PLAYORDER=
